<svg version="1.1" id="Layer_1" xmlns="http://www.w3.org/2000/svg" xmlns:xlink="http://www.w3.org/1999/xlink" x="0px" y="0px"
	 width="100%" viewBox="0 0 1080 1080" enable-background="new 0 0 1080 1080" xml:space="preserve">
<path fill="#FAF1F2" opacity="1.000000" stroke="none" 
	d="
M1001.000000,1081.000000 
	C667.333313,1081.000000 334.166656,1081.000000 1.000000,1081.000000 
	C1.000000,721.000000 1.000000,361.000000 1.000000,1.000000 
	C361.000000,1.000000 721.000000,1.000000 1081.000000,1.000000 
	C1081.000000,361.000000 1081.000000,721.000000 1081.000000,1081.000000 
	C1054.500000,1081.000000 1028.000000,1081.000000 1001.000000,1081.000000 
M250.561356,499.936523 
	C248.781723,498.433868 247.095078,496.801605 245.208496,495.448029 
	C217.638138,475.667419 176.542679,489.192749 165.319687,522.232483 
	C157.459518,545.372375 162.449509,566.503296 179.067017,584.254822 
	C195.024338,601.301086 215.489624,603.532654 235.023178,591.475708 
	C235.335724,591.282776 235.894928,591.489502 236.549454,591.519348 
	C236.703705,593.726074 236.850769,595.829895 237.016891,598.206299 
	C245.474777,598.206299 253.691788,598.206299 262.093811,598.206299 
	C262.093811,578.421509 262.093811,558.867188 262.093811,539.259888 
	C246.748047,539.259888 231.692612,539.259888 216.589569,539.259888 
	C216.589569,546.679810 216.589569,553.770752 216.589569,561.735229 
	C222.468185,561.735229 228.090942,561.735229 234.389450,561.735229 
	C222.450882,575.375671 205.227402,574.559448 197.748428,560.437622 
	C191.192322,548.058411 191.612915,535.250854 199.003754,523.295166 
	C205.819931,512.269165 219.085800,510.913422 228.561081,519.867676 
	C231.160919,522.324585 233.232056,525.341003 235.765167,528.362305 
	C243.313843,522.584900 250.795471,516.858765 258.787567,510.742035 
	C255.994461,507.016541 253.527695,503.726349 250.561356,499.936523 
M453.562561,497.827148 
	C451.367249,503.389862 448.549072,499.186829 446.768463,497.849060 
	C430.694427,485.773071 402.506622,490.516785 391.454102,511.875397 
	C385.568878,523.248413 383.778931,535.297791 385.379028,547.723511 
	C389.731842,581.526001 418.362366,595.360168 447.886169,578.095886 
	C451.456146,576.008301 452.526794,577.547668 453.477539,580.676208 
	C453.833374,581.847229 454.994049,582.773743 455.787750,583.811707 
	C456.263733,582.573242 457.128845,581.342346 457.152802,580.095154 
	C457.312744,571.771545 457.231201,563.443481 457.361633,555.119019 
	C457.415833,551.661499 457.931580,548.375671 462.436218,547.775391 
	C462.998047,547.700500 463.375549,546.242310 464.203339,544.780884 
	C454.129303,544.780884 444.999268,544.717834 435.872040,544.851013 
	C434.553558,544.870300 433.248871,545.832336 431.937836,546.358093 
	C433.132111,546.909973 434.281982,547.790833 435.528046,547.959106 
	C442.512390,548.902466 444.369293,550.770935 444.646820,557.942505 
	C444.814148,562.266296 444.641602,566.602722 444.773163,570.928833 
	C444.887207,574.679626 443.178192,577.163635 440.076294,579.093750 
	C428.769012,586.129639 410.531311,582.001343 404.807770,569.944824 
	C395.388519,550.103394 395.783325,529.579773 404.306122,509.528595 
	C408.902557,498.714783 418.374969,493.389008 427.902222,494.520508 
	C441.397980,496.123322 449.217102,502.721008 452.273560,515.122009 
	C452.751404,517.060608 452.851654,519.141785 453.631622,520.937683 
	C454.085663,521.983032 455.544220,522.592163 457.550354,524.197388 
	C457.550354,512.867676 457.550354,503.138702 457.550354,493.409790 
	C457.095917,493.174133 456.641479,492.938507 456.187042,492.702881 
	C455.376648,494.150116 454.566254,495.597351 453.562561,497.827148 
M865.334717,529.913818 
	C864.605652,523.757080 861.564758,519.279053 855.638855,517.148254 
	C845.961792,513.668396 835.181885,517.025696 828.902283,525.282837 
	C828.399536,525.943970 827.682983,526.442566 826.316833,527.713562 
	C826.316833,523.453796 826.316833,520.194641 826.316833,517.035156 
	C818.829346,517.474670 811.811890,517.886597 804.254761,518.330261 
	C804.874817,519.509827 805.204041,520.884216 805.684875,520.939453 
	C814.039185,521.899902 814.262634,528.066650 814.290344,534.272705 
	C814.345398,546.598572 814.288086,558.924927 814.297119,571.251038 
	C814.300659,576.141235 812.793762,579.728210 807.199341,580.303406 
	C806.319702,580.393799 805.542603,581.481873 804.718079,582.108704 
	C805.704163,582.682190 806.682373,583.736755 807.677673,583.753113 
	C815.662109,583.884583 823.650757,583.878357 831.635254,583.743103 
	C832.654846,583.725830 833.657715,582.723083 834.668274,582.176819 
	C833.870972,581.507874 833.148071,580.394226 832.263550,580.246094 
	C828.190674,579.564026 826.569824,576.923767 826.562500,573.218872 
	C826.540283,562.064453 826.106445,550.861267 827.033752,539.777649 
	C827.434265,534.990051 830.121643,529.988953 832.960999,525.914673 
	C836.369263,521.023743 842.074097,519.666565 847.756775,521.359741 
	C853.324097,523.018494 853.571228,528.366699 853.665222,532.949097 
	C853.935120,546.102051 853.832275,559.264160 853.747925,572.421875 
	C853.722595,576.374573 852.491943,579.639221 847.775330,580.291199 
	C846.921326,580.409241 846.212463,581.576965 845.436584,582.260071 
	C846.300110,582.782227 847.157349,583.745728 848.028076,583.757935 
	C856.346558,583.874939 864.668030,583.878540 872.986450,583.758911 
	C873.807251,583.747070 874.613281,582.698608 875.426208,582.131348 
	C874.777466,581.520264 874.233154,580.624084 873.463867,580.342529 
	C866.338074,577.734131 866.043762,577.339600 865.954285,569.700256 
	C865.802246,556.715576 865.624268,543.731262 865.334717,529.913818 
M644.239502,562.484802 
	C644.239502,540.732361 644.239502,518.979858 644.239502,496.925598 
	C647.930237,496.925598 651.070740,496.779236 654.193298,496.953888 
	C662.576599,497.422638 666.472839,500.705170 668.410889,508.952057 
	C669.093933,511.858612 669.216980,514.905823 670.016174,517.771484 
	C670.324280,518.876404 671.800598,519.655457 672.744629,520.583008 
	C673.044617,520.214172 673.344666,519.845276 673.644653,519.476440 
	C673.644653,510.759583 673.644653,502.042755 673.644653,493.443787 
	C649.663574,493.443787 626.088806,493.443787 602.658752,493.443787 
	C602.658752,502.006348 602.593018,510.278107 602.773254,518.544495 
	C602.789124,519.271240 604.415894,519.962891 605.648438,520.956055 
	C609.888733,498.272095 614.705994,494.048523 631.925598,497.461700 
	C631.925598,521.173889 631.983521,544.956604 631.895508,568.738770 
	C631.862915,577.531128 630.595093,578.765991 621.910828,580.533508 
	C620.793030,580.761047 619.852722,581.860718 618.830139,582.556335 
	C619.101257,582.972656 619.372314,583.388977 619.643433,583.805298 
	C631.119568,583.805298 642.596069,583.844238 654.071167,583.736633 
	C655.066711,583.727356 656.053162,582.751221 657.043823,582.224243 
	C656.055542,581.629089 655.132507,580.698669 654.068726,580.491882 
	C645.859009,578.895874 644.788757,577.767883 644.325500,569.469666 
	C644.214294,567.476685 644.263672,565.474670 644.239502,562.484802 
M530.811890,561.603516 
	C530.585876,553.333069 531.376221,544.874390 529.887268,536.837891 
	C527.833069,525.750916 520.376465,518.638184 509.030884,516.639221 
	C497.447479,514.598389 486.885254,516.770935 479.730835,526.998352 
	C472.230652,537.720215 472.471649,549.987183 474.642273,562.151550 
	C477.317505,577.143921 487.610474,585.519592 502.493286,585.651733 
	C517.224609,585.782532 527.529907,577.265930 530.811890,561.603516 
M784.585144,521.913757 
	C766.915710,509.288635 743.370239,517.119141 738.805298,537.142395 
	C736.700562,546.374329 736.285156,555.758545 739.052124,564.770447 
	C740.552002,569.655701 743.270813,574.749817 746.873779,578.290588 
	C755.607422,586.873352 766.661743,587.371765 777.591125,583.575684 
	C788.678955,579.724609 793.425659,570.515015 794.930603,559.402283 
	C795.264893,556.933655 795.519348,554.425842 795.484558,551.940674 
	C795.330811,540.948547 794.260071,530.238647 784.585144,521.913757 
M722.233948,516.054138 
	C712.664490,515.194275 708.174438,522.263855 702.710449,529.664246 
	C702.710449,524.568726 702.710449,520.794373 702.710449,517.020203 
	C695.340454,517.458740 688.311218,517.877014 680.196411,518.359863 
	C681.345459,519.623413 681.973572,520.975037 682.761108,521.075317 
	C688.979309,521.867737 690.613037,526.225159 690.676392,531.412842 
	C690.843262,545.063538 690.813477,558.717834 690.722107,572.369812 
	C690.693359,576.671204 688.771179,579.637146 684.048706,580.256531 
	C682.999634,580.394043 682.073303,581.467346 681.090454,582.109741 
	C682.239624,582.672913 683.382507,583.708862 684.539062,583.724426 
	C693.684143,583.847656 702.832642,583.831787 711.978027,583.706055 
	C713.373840,583.686829 714.758850,582.883484 716.148865,582.442810 
	C714.909424,581.716431 713.748108,580.590393 712.417480,580.330017 
	C705.060059,578.890076 702.957642,576.653992 702.896973,569.364197 
	C702.826416,560.872864 702.805420,552.379395 702.910889,543.888733 
	C703.005981,536.229431 705.874878,529.615845 711.181335,524.137451 
	C713.874146,521.357361 717.024353,519.379517 721.658142,520.354919 
	C720.891846,521.463684 719.960938,522.206726 719.885681,523.028198 
	C719.616089,525.972900 718.663879,529.460815 719.871338,531.732605 
	C720.748413,533.382874 725.024475,534.595825 727.061523,533.896423 
	C729.350708,533.110474 731.748047,530.227295 732.469604,527.776855 
	C734.100464,522.238037 730.424744,518.142639 722.233948,516.054138 
M564.231812,578.456299 
	C565.516418,580.436646 566.800964,582.417053 568.085571,584.397400 
	C569.337830,582.421631 570.951965,580.586792 571.784668,578.447693 
	C577.937073,562.641663 583.721863,546.688416 590.135132,530.991028 
	C591.656250,527.267822 595.160522,524.368408 597.659058,521.020325 
	C598.209534,520.282715 598.362183,519.248413 598.866882,517.899475 
	C592.469116,517.899475 586.823547,517.839172 581.181335,517.950195 
	C580.046631,517.972534 578.924805,518.645691 577.796997,519.018799 
	C578.797119,519.765991 579.692932,520.881287 580.814697,521.199280 
	C586.918518,522.929565 588.192810,524.852661 585.979004,531.031616 
	C582.054626,541.985046 577.821655,552.828064 573.683533,563.704285 
	C573.365417,564.540222 572.777527,565.273499 571.727905,567.046204 
	C571.233276,565.883118 571.035400,565.438721 570.853760,564.987854 
	C565.944946,552.802612 560.888672,540.673584 556.202637,528.403198 
	C554.287903,523.389282 555.561768,521.974915 560.930542,521.052734 
	C562.151672,520.843079 563.234009,519.825317 564.380188,519.179504 
	C564.132263,518.809814 563.884338,518.440186 563.636353,518.070496 
	C554.523071,518.070496 545.409729,518.070496 535.879700,518.070496 
	C536.206726,519.231262 536.231567,520.659302 536.717834,520.838989 
	C541.805054,522.719177 543.034668,527.447449 544.814087,531.670593 
	C551.272034,546.997742 557.604614,562.377747 564.231812,578.456299 
M293.824585,579.498108 
	C293.824585,585.150269 293.824585,590.802490 293.824585,596.454651 
	C294.123566,596.444031 294.422577,596.433350 294.721558,596.422668 
	C294.721558,559.207092 294.721558,521.991577 294.721558,484.776001 
	C294.422577,484.775635 294.123566,484.775269 293.824585,484.774902 
	C293.824585,516.016235 293.824585,547.257568 293.824585,579.498108 
z"/>
<path fill="#040404" opacity="1.000000" stroke="none" 
	d="
M250.811127,500.186340 
	C253.527695,503.726349 255.994461,507.016541 258.787567,510.742035 
	C250.795471,516.858765 243.313843,522.584900 235.765167,528.362305 
	C233.232056,525.341003 231.160919,522.324585 228.561081,519.867676 
	C219.085800,510.913422 205.819931,512.269165 199.003754,523.295166 
	C191.612915,535.250854 191.192322,548.058411 197.748428,560.437622 
	C205.227402,574.559448 222.450882,575.375671 234.389450,561.735229 
	C228.090942,561.735229 222.468185,561.735229 216.589569,561.735229 
	C216.589569,553.770752 216.589569,546.679810 216.589569,539.259888 
	C231.692612,539.259888 246.748047,539.259888 262.093811,539.259888 
	C262.093811,558.867188 262.093811,578.421509 262.093811,598.206299 
	C253.691788,598.206299 245.474777,598.206299 237.016891,598.206299 
	C236.850769,595.829895 236.703705,593.726074 236.549454,591.519348 
	C235.894928,591.489502 235.335724,591.282776 235.023178,591.475708 
	C215.489624,603.532654 195.024338,601.301086 179.067017,584.254822 
	C162.449509,566.503296 157.459518,545.372375 165.319687,522.232483 
	C176.542679,489.192749 217.638138,475.667419 245.208496,495.448029 
	C247.095078,496.801605 248.781723,498.433868 250.811127,500.186340 
z"/>
<path fill="#0D2643" opacity="1.000000" stroke="none" 
	d="
M453.659210,497.435852 
	C454.566254,495.597351 455.376648,494.150116 456.187042,492.702881 
	C456.641479,492.938507 457.095917,493.174133 457.550354,493.409790 
	C457.550354,503.138702 457.550354,512.867676 457.550354,524.197388 
	C455.544220,522.592163 454.085663,521.983032 453.631622,520.937683 
	C452.851654,519.141785 452.751404,517.060608 452.273560,515.122009 
	C449.217102,502.721008 441.397980,496.123322 427.902222,494.520508 
	C418.374969,493.389008 408.902557,498.714783 404.306122,509.528595 
	C395.783325,529.579773 395.388519,550.103394 404.807770,569.944824 
	C410.531311,582.001343 428.769012,586.129639 440.076294,579.093750 
	C443.178192,577.163635 444.887207,574.679626 444.773163,570.928833 
	C444.641602,566.602722 444.814148,562.266296 444.646820,557.942505 
	C444.369293,550.770935 442.512390,548.902466 435.528046,547.959106 
	C434.281982,547.790833 433.132111,546.909973 431.937805,546.358032 
	C433.248871,545.832336 434.553558,544.870300 435.872040,544.851013 
	C444.999268,544.717834 454.129303,544.780884 464.203339,544.780884 
	C463.375549,546.242310 462.998047,547.700500 462.436218,547.775391 
	C457.931580,548.375671 457.415833,551.661499 457.361633,555.119019 
	C457.231201,563.443481 457.312744,571.771545 457.152802,580.095154 
	C457.128845,581.342346 456.263733,582.573242 455.787750,583.811707 
	C454.994049,582.773743 453.833374,581.847229 453.477539,580.676208 
	C452.526794,577.547668 451.456146,576.008301 447.886169,578.095886 
	C418.362366,595.360168 389.731842,581.526001 385.379028,547.723511 
	C383.778931,535.297791 385.568878,523.248413 391.454102,511.875397 
	C402.506622,490.516785 430.694427,485.773071 446.768463,497.849060 
	C448.549072,499.186829 451.367249,503.389862 453.659210,497.435852 
z"/>
<path fill="#0D2643" opacity="1.000000" stroke="none" 
	d="
M865.395996,530.330322 
	C865.624268,543.731262 865.802246,556.715576 865.954285,569.700256 
	C866.043762,577.339600 866.338074,577.734131 873.463867,580.342529 
	C874.233154,580.624084 874.777466,581.520264 875.426208,582.131348 
	C874.613281,582.698608 873.807251,583.747070 872.986450,583.758911 
	C864.668030,583.878540 856.346558,583.874939 848.028076,583.757935 
	C847.157349,583.745728 846.300110,582.782227 845.436584,582.260071 
	C846.212463,581.576965 846.921326,580.409241 847.775330,580.291199 
	C852.491943,579.639221 853.722595,576.374573 853.747925,572.421875 
	C853.832275,559.264160 853.935120,546.102051 853.665222,532.949097 
	C853.571228,528.366699 853.324097,523.018494 847.756775,521.359741 
	C842.074097,519.666565 836.369263,521.023743 832.960999,525.914673 
	C830.121643,529.988953 827.434265,534.990051 827.033752,539.777649 
	C826.106445,550.861267 826.540283,562.064453 826.562500,573.218872 
	C826.569824,576.923767 828.190674,579.564026 832.263550,580.246094 
	C833.148071,580.394226 833.870972,581.507874 834.668274,582.176880 
	C833.657715,582.723083 832.654846,583.725830 831.635254,583.743103 
	C823.650757,583.878357 815.662109,583.884583 807.677673,583.753113 
	C806.682373,583.736755 805.704163,582.682190 804.718079,582.108704 
	C805.542603,581.481873 806.319702,580.393799 807.199341,580.303406 
	C812.793762,579.728210 814.300659,576.141235 814.297119,571.251038 
	C814.288086,558.924927 814.345398,546.598572 814.290344,534.272705 
	C814.262634,528.066650 814.039185,521.899902 805.684875,520.939453 
	C805.204041,520.884216 804.874817,519.509827 804.254761,518.330261 
	C811.811890,517.886597 818.829346,517.474670 826.316833,517.035156 
	C826.316833,520.194641 826.316833,523.453796 826.316833,527.713562 
	C827.682983,526.442566 828.399536,525.943970 828.902283,525.282837 
	C835.181885,517.025696 845.961792,513.668396 855.638855,517.148254 
	C861.564758,519.279053 864.605652,523.757080 865.395996,530.330322 
z"/>
<path fill="#092340" opacity="1.000000" stroke="none" 
	d="
M644.239380,562.980835 
	C644.263672,565.474670 644.214294,567.476685 644.325500,569.469666 
	C644.788757,577.767883 645.859009,578.895874 654.068726,580.491882 
	C655.132507,580.698669 656.055542,581.629089 657.043823,582.224243 
	C656.053162,582.751221 655.066711,583.727356 654.071167,583.736633 
	C642.596069,583.844238 631.119568,583.805298 619.643433,583.805298 
	C619.372314,583.388977 619.101257,582.972656 618.830139,582.556335 
	C619.852722,581.860718 620.793030,580.761047 621.910828,580.533508 
	C630.595093,578.765991 631.862915,577.531128 631.895508,568.738770 
	C631.983521,544.956604 631.925598,521.173889 631.925598,497.461700 
	C614.705994,494.048523 609.888733,498.272095 605.648438,520.956055 
	C604.415894,519.962891 602.789124,519.271240 602.773254,518.544495 
	C602.593018,510.278107 602.658752,502.006348 602.658752,493.443787 
	C626.088806,493.443787 649.663574,493.443787 673.644653,493.443787 
	C673.644653,502.042755 673.644653,510.759583 673.644653,519.476440 
	C673.344666,519.845276 673.044617,520.214172 672.744629,520.583008 
	C671.800598,519.655457 670.324280,518.876404 670.016174,517.771484 
	C669.216980,514.905823 669.093933,511.858612 668.410889,508.952057 
	C666.472839,500.705170 662.576599,497.422638 654.193298,496.953888 
	C651.070740,496.779236 647.930237,496.925598 644.239502,496.925598 
	C644.239502,518.979858 644.239502,540.732361 644.239380,562.980835 
z"/>
<path fill="#0C2542" opacity="1.000000" stroke="none" 
	d="
M530.705444,562.013977 
	C527.529907,577.265930 517.224609,585.782532 502.493286,585.651733 
	C487.610474,585.519592 477.317505,577.143921 474.642273,562.151550 
	C472.471649,549.987183 472.230652,537.720215 479.730835,526.998352 
	C486.885254,516.770935 497.447479,514.598389 509.030884,516.639221 
	C520.376465,518.638184 527.833069,525.750916 529.887268,536.837891 
	C531.376221,544.874390 530.585876,553.333069 530.705444,562.013977 
M489.403961,530.211609 
	C485.312347,544.658752 484.826233,559.093262 490.338196,573.261536 
	C492.451996,578.694946 496.569763,582.359436 502.879333,582.258118 
	C508.968018,582.160400 512.516113,578.326721 514.971680,573.267578 
	C515.835876,571.487122 516.539368,569.575378 516.969482,567.646240 
	C519.466431,556.447388 519.435608,545.222595 517.009033,534.010132 
	C516.763672,532.876282 516.435974,531.745789 516.009216,530.668091 
	C513.624695,524.646973 510.193939,519.491638 503.008057,519.257507 
	C496.046234,519.030884 492.263977,523.630920 489.403961,530.211609 
z"/>
<path fill="#0C2542" opacity="1.000000" stroke="none" 
	d="
M784.855225,522.145874 
	C794.260071,530.238647 795.330811,540.948547 795.484558,551.940674 
	C795.519348,554.425842 795.264893,556.933655 794.930603,559.402283 
	C793.425659,570.515015 788.678955,579.724609 777.591125,583.575684 
	C766.661743,587.371765 755.607422,586.873352 746.873779,578.290588 
	C743.270813,574.749817 740.552002,569.655701 739.052124,564.770447 
	C736.285156,555.758545 736.700562,546.374329 738.805298,537.142395 
	C743.370239,517.119141 766.915710,509.288635 784.855225,522.145874 
M755.277100,525.927063 
	C749.687439,536.026550 749.585999,547.031250 750.616333,558.003418 
	C751.135315,563.530945 752.619141,569.129822 754.658752,574.305542 
	C756.572205,579.161072 760.667175,582.273926 766.312683,582.279846 
	C771.942383,582.285767 776.080017,579.242859 778.074280,574.402100 
	C784.500671,558.802612 784.753296,542.782654 778.087585,527.342346 
	C773.620361,516.994690 762.869568,516.467468 755.277100,525.927063 
z"/>
<path fill="#092340" opacity="1.000000" stroke="none" 
	d="
M722.648682,516.108276 
	C730.424744,518.142639 734.100464,522.238037 732.469604,527.776855 
	C731.748047,530.227295 729.350708,533.110474 727.061523,533.896423 
	C725.024475,534.595825 720.748413,533.382874 719.871338,531.732605 
	C718.663879,529.460815 719.616089,525.972900 719.885681,523.028198 
	C719.960938,522.206726 720.891846,521.463684 721.658142,520.354919 
	C717.024353,519.379517 713.874146,521.357361 711.181335,524.137451 
	C705.874878,529.615845 703.005981,536.229431 702.910889,543.888733 
	C702.805420,552.379395 702.826416,560.872864 702.896973,569.364197 
	C702.957642,576.653992 705.060059,578.890076 712.417480,580.330017 
	C713.748108,580.590393 714.909424,581.716431 716.148865,582.442810 
	C714.758850,582.883484 713.373840,583.686829 711.978027,583.706055 
	C702.832642,583.831787 693.684143,583.847656 684.539062,583.724426 
	C683.382507,583.708862 682.239624,582.672913 681.090454,582.109741 
	C682.073303,581.467346 682.999634,580.394043 684.048706,580.256531 
	C688.771179,579.637146 690.693359,576.671204 690.722107,572.369812 
	C690.813477,558.717834 690.843262,545.063538 690.676392,531.412842 
	C690.613037,526.225159 688.979309,521.867737 682.761108,521.075317 
	C681.973572,520.975037 681.345459,519.623413 680.196411,518.359863 
	C688.311218,517.877014 695.340454,517.458740 702.710449,517.020203 
	C702.710449,520.794373 702.710449,524.568726 702.710449,529.664246 
	C708.174438,522.263855 712.664490,515.194275 722.648682,516.108276 
z"/>
<path fill="#0D2643" opacity="1.000000" stroke="none" 
	d="
M564.108154,578.097046 
	C557.604614,562.377747 551.272034,546.997742 544.814087,531.670593 
	C543.034668,527.447449 541.805054,522.719177 536.717834,520.838989 
	C536.231567,520.659302 536.206726,519.231262 535.879700,518.070496 
	C545.409729,518.070496 554.523071,518.070496 563.636353,518.070496 
	C563.884338,518.440186 564.132263,518.809814 564.380188,519.179504 
	C563.234009,519.825317 562.151672,520.843079 560.930542,521.052734 
	C555.561768,521.974915 554.287903,523.389282 556.202637,528.403198 
	C560.888672,540.673584 565.944946,552.802612 570.853760,564.987854 
	C571.035400,565.438721 571.233276,565.883118 571.727905,567.046204 
	C572.777527,565.273499 573.365417,564.540222 573.683533,563.704285 
	C577.821655,552.828064 582.054626,541.985046 585.979004,531.031616 
	C588.192810,524.852661 586.918518,522.929565 580.814697,521.199280 
	C579.692932,520.881287 578.797119,519.765991 577.796997,519.018799 
	C578.924805,518.645691 580.046631,517.972534 581.181335,517.950195 
	C586.823547,517.839172 592.469116,517.899475 598.866882,517.899475 
	C598.362183,519.248413 598.209534,520.282715 597.659058,521.020325 
	C595.160522,524.368408 591.656250,527.267822 590.135132,530.991028 
	C583.721863,546.688416 577.937073,562.641663 571.784668,578.447693 
	C570.951965,580.586792 569.337830,582.421631 568.085571,584.397400 
	C566.800964,582.417053 565.516418,580.436646 564.108154,578.097046 
z"/>
<path fill="#040404" opacity="1.000000" stroke="none" 
	d="
M293.824585,578.998535 
	C293.824585,547.257568 293.824585,516.016235 293.824585,484.774902 
	C294.123566,484.775269 294.422577,484.775635 294.721558,484.776001 
	C294.721558,521.991577 294.721558,559.207092 294.721558,596.422668 
	C294.422577,596.433350 294.123566,596.444031 293.824585,596.454651 
	C293.824585,590.802490 293.824585,585.150269 293.824585,578.998535 
z"/>
<path fill="#F5ECEE" opacity="1.000000" stroke="none" 
	d="
M489.559631,529.854614 
	C492.263977,523.630920 496.046234,519.030884 503.008057,519.257507 
	C510.193939,519.491638 513.624695,524.646973 516.009216,530.668091 
	C516.435974,531.745789 516.763672,532.876282 517.009033,534.010132 
	C519.435608,545.222595 519.466431,556.447388 516.969482,567.646240 
	C516.539368,569.575378 515.835876,571.487122 514.971680,573.267578 
	C512.516113,578.326721 508.968018,582.160400 502.879333,582.258118 
	C496.569763,582.359436 492.451996,578.694946 490.338196,573.261536 
	C484.826233,559.093262 485.312347,544.658752 489.559631,529.854614 
z"/>
<path fill="#F5ECEE" opacity="1.000000" stroke="none" 
	d="
M755.500183,525.630249 
	C762.869568,516.467468 773.620361,516.994690 778.087585,527.342346 
	C784.753296,542.782654 784.500671,558.802612 778.074280,574.402100 
	C776.080017,579.242859 771.942383,582.285767 766.312683,582.279846 
	C760.667175,582.273926 756.572205,579.161072 754.658752,574.305542 
	C752.619141,569.129822 751.135315,563.530945 750.616333,558.003418 
	C749.585999,547.031250 749.687439,536.026550 755.500183,525.630249 
z"/>
</svg>