<?xml version="1.0" encoding="utf-8"?>
<!-- Generator: Adobe Illustrator 24.2.3, SVG Export Plug-In . SVG Version: 6.00 Build 0)  -->
<svg version="1.1" id="Layer_1" xmlns="http://www.w3.org/2000/svg" xmlns:xlink="http://www.w3.org/1999/xlink" x="0px" y="0px"
	 viewBox="0 0 1063.25 1037.33" style="enable-background:new 0 0 1063.25 1037.33;" xml:space="preserve">
<style type="text/css">
	.st0{fill:#FFFFFF;}
	.st1{fill:url(#SVGID_1_);}
	.st2{fill:url(#SVGID_2_);}
	.st3{fill:url(#SVGID_3_);}
	.st4{fill:url(#SVGID_4_);}
	.st5{fill:url(#SVGID_5_);}
	.st6{fill:url(#SVGID_6_);}
	.st7{fill:url(#SVGID_7_);}
	.st8{fill:url(#SVGID_8_);}
	.st9{fill:url(#SVGID_9_);}
	.st10{fill:url(#SVGID_10_);}
	.st11{fill:url(#SVGID_11_);}
	.st12{fill:url(#SVGID_12_);}
	.st13{opacity:0.3;fill:#FFFFFF;}
	.st14{opacity:0.15;fill:#FFFFFF;}
	.st15{opacity:0.45;fill:#FFFFFF;}
	.st16{opacity:0.4;fill:#FFFFFF;}
	.st17{opacity:0.25;fill:#FFFFFF;}
	.st18{opacity:0.1;fill:#FFFFFF;}
	.st19{fill:url(#SVGID_13_);}
	.st20{fill:url(#SVGID_14_);}
	.st21{fill:url(#SVGID_15_);}
	.st22{fill:url(#SVGID_16_);}
	.st23{fill:url(#SVGID_17_);}
	.st24{fill:url(#SVGID_18_);}
	.st25{fill:url(#SVGID_19_);}
	.st26{fill:url(#SVGID_20_);}
	.st27{fill:url(#SVGID_21_);}
	.st28{fill:url(#SVGID_22_);}
	.st29{fill:url(#SVGID_23_);}
	.st30{fill:url(#SVGID_24_);}
	.st31{fill:url(#SVGID_25_);}
	.st32{fill:url(#SVGID_26_);}
	.st33{fill:url(#SVGID_27_);}
	.st34{fill:url(#SVGID_28_);}
	.st35{fill:url(#SVGID_29_);}
	.st36{fill:url(#SVGID_30_);}
	.st37{fill:url(#SVGID_31_);}
	.st38{fill:url(#SVGID_32_);}
	.st39{fill:url(#SVGID_33_);}
	.st40{fill:url(#SVGID_34_);}
	.st41{fill:url(#SVGID_35_);}
	.st42{fill:url(#SVGID_36_);}
	.st43{fill:url(#SVGID_37_);}
	.st44{fill:url(#SVGID_38_);}
	.st45{fill:url(#SVGID_39_);}
	.st46{fill:url(#SVGID_40_);}
	.st47{fill:url(#SVGID_41_);}
	.st48{fill:url(#SVGID_42_);}
	.st49{fill:url(#SVGID_43_);}
	.st50{fill:url(#SVGID_44_);}
	.st51{fill:url(#SVGID_45_);}
	.st52{fill:#A8A8A8;}
	.st53{opacity:0.6;fill:#FFFFFF;}
	.st54{opacity:0.7;fill:#FFFFFF;}
	.st55{opacity:0.2;fill:#FFFFFF;}
	.st56{fill:url(#SVGID_46_);}
	.st57{fill:url(#SVGID_47_);}
	.st58{fill:url(#SVGID_48_);}
	.st59{fill:url(#SVGID_49_);}
	.st60{fill:url(#SVGID_50_);}
	.st61{fill:url(#SVGID_51_);}
	.st62{fill:url(#SVGID_52_);}
	.st63{fill:url(#SVGID_53_);}
	.st64{fill:url(#SVGID_54_);}
	.st65{fill:url(#SVGID_55_);}
	.st66{fill:url(#SVGID_56_);}
	.st67{fill:url(#SVGID_57_);}
	.st68{fill:url(#SVGID_58_);}
	.st69{fill:url(#SVGID_59_);}
	.st70{fill:url(#SVGID_60_);}
	.st71{fill:url(#SVGID_61_);}
	.st72{fill:url(#SVGID_62_);}
	.st73{fill:url(#SVGID_63_);}
	.st74{fill:url(#SVGID_64_);}
	.st75{fill:url(#SVGID_65_);}
	.st76{fill:url(#SVGID_66_);}
	.st77{fill:url(#SVGID_67_);}
	.st78{fill:url(#SVGID_68_);}
	.st79{fill:url(#SVGID_69_);}
	.st80{fill:url(#SVGID_70_);}
	.st81{fill:url(#SVGID_71_);}
	.st82{fill:url(#SVGID_72_);}
	.st83{fill:url(#SVGID_73_);}
	.st84{fill:url(#SVGID_74_);}
	.st85{fill:url(#SVGID_75_);}
</style>
<g>
	<g>
		<linearGradient id="SVGID_1_" gradientUnits="userSpaceOnUse" x1="-123.643" y1="465.5971" x2="684.8115" y2="954.8336">
			<stop  offset="0" style="stop-color:#01FDFD"/>
			<stop  offset="0.3" style="stop-color:#018BEC"/>
			<stop  offset="1" style="stop-color:#F702A8"/>
		</linearGradient>
		<polygon class="st1" points="433.13,688.04 531.62,857.41 334.63,857.41 433.13,688.04 		"/>
		<linearGradient id="SVGID_2_" gradientUnits="userSpaceOnUse" x1="-22.2197" y1="297.9969" x2="786.2348" y2="787.2333">
			<stop  offset="0" style="stop-color:#01FDFD"/>
			<stop  offset="0.3" style="stop-color:#018BEC"/>
			<stop  offset="1" style="stop-color:#F702A8"/>
		</linearGradient>
		<polygon class="st2" points="531.62,518.67 630.12,688.04 433.13,688.04 531.62,518.67 		"/>
		<linearGradient id="SVGID_3_" gradientUnits="userSpaceOnUse" x1="-75.0223" y1="385.2523" x2="733.4322" y2="874.4887">
			<stop  offset="0" style="stop-color:#01FDFD"/>
			<stop  offset="0.3" style="stop-color:#018BEC"/>
			<stop  offset="1" style="stop-color:#F702A8"/>
		</linearGradient>
		<polygon class="st3" points="334.63,518.67 433.13,688.04 236.14,688.04 334.63,518.67 		"/>
		<linearGradient id="SVGID_4_" gradientUnits="userSpaceOnUse" x1="-26.4017" y1="304.9075" x2="782.0529" y2="794.1439">
			<stop  offset="0" style="stop-color:#01FDFD"/>
			<stop  offset="0.3" style="stop-color:#018BEC"/>
			<stop  offset="1" style="stop-color:#F702A8"/>
		</linearGradient>
		<polygon class="st4" points="236.14,349.29 334.63,518.67 137.64,518.67 236.14,349.29 		"/>
		<linearGradient id="SVGID_5_" gradientUnits="userSpaceOnUse" x1="75.0216" y1="137.3073" x2="883.4761" y2="626.5438">
			<stop  offset="0" style="stop-color:#01FDFD"/>
			<stop  offset="0.3" style="stop-color:#018BEC"/>
			<stop  offset="1" style="stop-color:#F702A8"/>
		</linearGradient>
		<polygon class="st5" points="334.63,179.92 433.13,349.29 236.14,349.29 334.63,179.92 		"/>
		<linearGradient id="SVGID_6_" gradientUnits="userSpaceOnUse" x1="127.8243" y1="50.0519" x2="936.2787" y2="539.2883">
			<stop  offset="0" style="stop-color:#01FDFD"/>
			<stop  offset="0.3" style="stop-color:#018BEC"/>
			<stop  offset="1" style="stop-color:#F702A8"/>
		</linearGradient>
		<polygon class="st6" points="531.62,179.92 630.12,349.29 433.13,349.29 531.62,179.92 		"/>
		<linearGradient id="SVGID_7_" gradientUnits="userSpaceOnUse" x1="-123.643" y1="465.5971" x2="684.8115" y2="954.8336">
			<stop  offset="0" style="stop-color:#01FDFD"/>
			<stop  offset="0.3" style="stop-color:#018BEC"/>
			<stop  offset="1" style="stop-color:#F702A8"/>
		</linearGradient>
		<polygon class="st7" points="334.63,857.41 236.14,688.04 433.13,688.04 334.63,857.41 		"/>
		<linearGradient id="SVGID_8_" gradientUnits="userSpaceOnUse" x1="-70.8404" y1="378.3417" x2="737.6141" y2="867.5781">
			<stop  offset="0" style="stop-color:#01FDFD"/>
			<stop  offset="0.3" style="stop-color:#018BEC"/>
			<stop  offset="1" style="stop-color:#F702A8"/>
		</linearGradient>
		<polygon class="st8" points="531.62,857.41 433.13,688.04 630.12,688.04 531.62,857.41 		"/>
		<linearGradient id="SVGID_9_" gradientUnits="userSpaceOnUse" x1="30.5829" y1="210.7415" x2="839.0374" y2="699.978">
			<stop  offset="0" style="stop-color:#01FDFD"/>
			<stop  offset="0.3" style="stop-color:#018BEC"/>
			<stop  offset="1" style="stop-color:#F702A8"/>
		</linearGradient>
		<polygon class="st9" points="630.12,688.04 531.62,518.67 728.61,518.67 630.12,688.04 		"/>
		<linearGradient id="SVGID_10_" gradientUnits="userSpaceOnUse" x1="-75.0223" y1="385.2523" x2="733.4322" y2="874.4887">
			<stop  offset="0" style="stop-color:#01FDFD"/>
			<stop  offset="0.3" style="stop-color:#018BEC"/>
			<stop  offset="1" style="stop-color:#F702A8"/>
		</linearGradient>
		<polygon class="st10" points="236.14,688.04 137.64,518.67 334.63,518.67 236.14,688.04 		"/>
		<linearGradient id="SVGID_11_" gradientUnits="userSpaceOnUse" x1="26.401" y1="217.6521" x2="834.8555" y2="706.8885">
			<stop  offset="0" style="stop-color:#01FDFD"/>
			<stop  offset="0.3" style="stop-color:#018BEC"/>
			<stop  offset="1" style="stop-color:#F702A8"/>
		</linearGradient>
		<polygon class="st11" points="334.63,518.67 236.14,349.29 433.13,349.29 334.63,518.67 		"/>
		<linearGradient id="SVGID_12_" gradientUnits="userSpaceOnUse" x1="127.8243" y1="50.0519" x2="936.2787" y2="539.2883">
			<stop  offset="0" style="stop-color:#01FDFD"/>
			<stop  offset="0.3" style="stop-color:#018BEC"/>
			<stop  offset="1" style="stop-color:#F702A8"/>
		</linearGradient>
		<polygon class="st12" points="433.13,349.29 334.63,179.92 531.62,179.92 433.13,349.29 		"/>
		<polygon class="st13" points="433.13,688.04 531.62,857.41 334.63,857.41 433.13,688.04 		"/>
		<polygon class="st14" points="531.62,518.67 630.12,688.04 433.13,688.04 531.62,518.67 		"/>
		<polygon class="st15" points="334.63,518.67 433.13,688.04 236.14,688.04 334.63,518.67 		"/>
		<polygon class="st14" points="236.14,349.29 334.63,518.67 137.64,518.67 236.14,349.29 		"/>
		<polygon class="st13" points="334.63,179.92 433.13,349.29 236.14,349.29 334.63,179.92 		"/>
		<polygon class="st16" points="531.62,179.92 630.12,349.29 433.13,349.29 531.62,179.92 		"/>
		<polygon class="st16" points="334.63,857.41 236.14,688.04 433.13,688.04 334.63,857.41 		"/>
		<polygon class="st17" points="531.62,857.41 433.13,688.04 630.12,688.04 531.62,857.41 		"/>
		<polygon class="st18" points="630.12,688.04 531.62,518.67 728.61,518.67 630.12,688.04 		"/>
		<polygon class="st18" points="236.14,688.04 137.64,518.67 334.63,518.67 236.14,688.04 		"/>
		<polygon class="st17" points="334.63,518.67 236.14,349.29 433.13,349.29 334.63,518.67 		"/>
		<polygon class="st15" points="433.13,349.29 334.63,179.92 531.62,179.92 433.13,349.29 		"/>
		<linearGradient id="SVGID_13_" gradientUnits="userSpaceOnUse" x1="180.6269" y1="-37.2035" x2="989.0814" y2="452.0329">
			<stop  offset="0" style="stop-color:#01FDFD"/>
			<stop  offset="0.3" style="stop-color:#018BEC"/>
			<stop  offset="1" style="stop-color:#F702A8"/>
		</linearGradient>
		<polygon class="st19" points="630.12,349.29 531.62,179.92 728.61,179.92 630.12,349.29 		"/>
		<polygon class="st15" points="630.12,349.29 531.62,179.92 728.61,179.92 630.12,349.29 		"/>
		<linearGradient id="SVGID_14_" gradientUnits="userSpaceOnUse" x1="180.6269" y1="-37.2035" x2="989.0814" y2="452.0329">
			<stop  offset="0" style="stop-color:#01FDFD"/>
			<stop  offset="0.3" style="stop-color:#018BEC"/>
			<stop  offset="1" style="stop-color:#F702A8"/>
		</linearGradient>
		<polygon class="st20" points="728.61,179.92 827.11,349.29 630.12,349.29 728.61,179.92 		"/>
		<polygon class="st16" points="728.61,179.92 827.11,349.29 630.12,349.29 728.61,179.92 		"/>
		<linearGradient id="SVGID_15_" gradientUnits="userSpaceOnUse" x1="233.4295" y1="-124.4589" x2="1041.884" y2="364.7775">
			<stop  offset="0" style="stop-color:#01FDFD"/>
			<stop  offset="0.3" style="stop-color:#018BEC"/>
			<stop  offset="1" style="stop-color:#F702A8"/>
		</linearGradient>
		<polygon class="st21" points="827.11,349.29 728.61,179.92 925.6,179.92 827.11,349.29 		"/>
		<polygon class="st15" points="827.11,349.29 728.61,179.92 925.6,179.92 827.11,349.29 		"/>
	</g>
</g>
</svg>
